<svg width="38" height="39" viewBox="0 0 38 39" fill="none" xmlns="http://www.w3.org/2000/svg">
<path d="M6.80825 31.6917C6.51797 31.4014 6.37284 31.032 6.37284 30.5833C6.37284 30.1347 6.51797 29.7653 6.80825 29.475L8.98534 27.2979C8.14089 26.216 7.48803 25.0153 7.02675 23.6958C6.56547 22.3764 6.33431 20.9778 6.33325 19.5C6.33325 15.9639 7.56034 12.9688 10.0145 10.5146C12.4687 8.06043 15.4638 6.83334 18.9999 6.83334H31.6666V19.5C31.6666 23.0361 30.4395 26.0313 27.9853 28.4854C25.5312 30.9396 22.536 32.1667 18.9999 32.1667C17.5221 32.1667 16.1304 31.936 14.8247 31.4748C13.5189 31.0135 12.3246 30.3601 11.2416 29.5146L9.02492 31.6917C8.73464 31.982 8.3652 32.1271 7.91659 32.1271C7.46797 32.1271 7.09853 31.982 6.80825 31.6917ZM13.2208 25.2792C13.511 25.6222 13.8805 25.7869 14.3291 25.7732C14.7777 25.7595 15.1603 25.5948 15.477 25.2792L21.6916 19.0646C22.0083 18.7479 22.1666 18.3716 22.1666 17.9357C22.1666 17.4997 22.0083 17.124 21.6916 16.8083C21.4013 16.5181 21.0319 16.3729 20.5833 16.3729C20.1346 16.3729 19.7652 16.5181 19.4749 16.8083L13.2208 23.0625C12.9305 23.3528 12.7853 23.7159 12.7853 24.1518C12.7853 24.5878 12.9305 24.9636 13.2208 25.2792Z" fill="#004346"/>
</svg>
